<?xml version="1.0" encoding="utf-8"?>
<!-- Generator: Adobe Illustrator 25.2.1, SVG Export Plug-In . SVG Version: 6.00 Build 0)  -->
<svg version="1.1" id="Ebene_1" xmlns="http://www.w3.org/2000/svg" xmlns:xlink="http://www.w3.org/1999/xlink" x="0px" y="0px"
	 viewBox="0 0 329.9 76.3" style="enable-background:new 0 0 329.9 76.3;" xml:space="preserve">
<style type="text/css">
	.st0{fill:#A01441;}
	.st1{enable-background:new    ;}
	.st2{fill:#6F6F6F;}
</style>
<g>
	<path class="st0" d="M0,51.5c0-5.8,4.7-10.4,10.4-10.4s10.4,4.7,10.4,10.4c0,5.8-4.7,10.4-10.4,10.4l0,0C4.7,61.9,0,57.3,0,51.5z"
		/>
	<g class="st1">
		<path class="st2" d="M63.4,14.9c6.1,0,11.4,5,11.4,11.4v34.4h-9.6V28.1c0-2.6-2-4.6-4.6-4.6h-24v37.2h-9.5V14.9H63.4z"/>
		<path class="st2" d="M119.9,14.9c6.3,0,11.4,5,11.4,11.4v34.4H95.1c-6.2,0-11.1-5-11.1-11.1v-5c0-6.2,5-11.1,11.1-11.1h26.6V28
			c0-2.6-2-4.6-4.6-4.6H86.8v-8.5H119.9z M121.7,52.2V41.8H98c-2.8,0-4.5,1.8-4.5,4.4v1.6c0,2.6,1.9,4.4,4.5,4.4H121.7z"/>
		<path class="st2" d="M189.9,14.9L168,60.6h-9.6l-21.9-45.8h10.4l16.1,35.3h0.3l16.2-35.3H189.9z"/>
		<path class="st2" d="M205.4,0v9.3h-9.5V0H205.4z M205.4,14.9v45.8h-9.5V14.9H205.4z"/>
		<path class="st2" d="M222.8,75.7v-8.5h25.4c2.6,0,4.6-2,4.6-4.6v-2H226c-6.1,0-11.4-5-11.4-11.4v-23c0-6.1,5-11.4,11.4-11.4h36.3
			v49.4c0,6.1-5,11.4-11.4,11.4H222.8z M252.8,52.1V23.4h-24c-2.6,0-4.6,2-4.6,4.6v19.4c0,2.6,2,4.6,4.6,4.6H252.8z"/>
		<path class="st2" d="M308.8,14.9c6.1,0,11.4,5,11.4,11.4v23c0,6.1-5,11.4-11.4,11.4H283c-6.1,0-11.4-5-11.4-11.4v-23
			c0-6.1,5-11.4,11.4-11.4H308.8z M310.7,28.1c0-2.6-2.1-4.6-4.6-4.6h-20.2c-2.6,0-4.6,2-4.6,4.6v19.4c0,2.6,2.1,4.6,4.6,4.6H306
			c2.6,0,4.6-2,4.6-4.6V28.1z"/>
	</g>
</g>
</svg>
